<svg width="93" height="92" viewBox="0 0 93 92" fill="none" xmlns="http://www.w3.org/2000/svg">
<path d="M38.0363 64.0594H54.9602M46.5 13.4932V17.105M69.5481 23.0141L66.9876 25.5677M79.0948 46.0001H75.4731M17.5269 46.0001H13.9053M26.0124 25.5677L23.4519 23.0141M33.6939 58.7717C31.1619 56.2458 29.4377 53.0279 28.7394 49.5249C28.0411 46.0218 28.4 42.3909 29.7707 39.0913C31.1414 35.7917 33.4624 32.9714 36.4402 30.9873C39.4179 29.0031 42.9188 27.944 46.5 27.944C50.0813 27.944 53.5821 29.0031 56.5599 30.9873C59.5377 32.9714 61.8587 35.7917 63.2294 39.0913C64.6001 42.3909 64.959 46.0218 64.2606 49.5249C63.5623 53.0279 61.8381 56.2458 59.3061 58.7717L57.3215 60.7474C56.1869 61.8791 55.2869 63.2227 54.6729 64.7014C54.059 66.1801 53.7431 67.7649 53.7433 69.3653V71.2832C53.7433 73.1991 52.9802 75.0364 51.6218 76.3912C50.2634 77.7459 48.4211 78.507 46.5 78.507C44.579 78.507 42.7366 77.7459 41.3783 76.3912C40.0199 75.0364 39.2568 73.1991 39.2568 71.2832V69.3653C39.2568 66.1327 37.9674 63.0301 35.6786 60.7474L33.6939 58.7717Z" stroke="#04193E" stroke-width="6.83333" stroke-linecap="round" stroke-linejoin="round"/>
<path d="M46.4998 0.694824C71.5908 0.694824 91.9294 20.9804 91.9294 46.0005C91.9292 71.0204 71.5906 91.3052 46.4998 91.3052C21.409 91.305 1.07131 71.0203 1.07104 46.0005C1.07104 20.9805 21.4089 0.694968 46.4998 0.694824Z" stroke="#04193E"/>
</svg>
