<svg width="51" height="54" viewBox="0 0 51 54" fill="none" xmlns="http://www.w3.org/2000/svg">
<path d="M50.8362 16.2228C50.8077 14.0138 50.4072 11.8267 49.6528 9.75946C48.9985 8.01574 47.9993 6.43212 46.7188 5.1098C45.4384 3.78748 43.9049 2.75552 42.2164 2.07988C40.2404 1.31383 38.1528 0.89962 36.0425 0.854875C33.3256 0.729458 32.4641 0.694458 25.5672 0.694458C18.6703 0.694458 17.7863 0.694458 15.0891 0.854875C12.9798 0.899949 10.8932 1.31416 8.91803 2.07988C7.22927 2.75505 5.69558 3.78684 4.41508 5.10922C3.13458 6.4316 2.13547 8.01546 1.48167 9.75946C0.738409 11.7986 0.338185 13.9539 0.298297 16.1324C0.176852 18.9411 0.140137 19.8307 0.140137 26.9532C0.140137 34.0757 0.140137 34.9857 0.298297 37.774C0.340661 39.9557 0.738886 42.1082 1.48167 44.1528C2.13656 45.8963 3.13642 47.4795 4.41734 48.8013C5.69827 50.1231 7.23211 51.1545 8.92086 51.8295C10.8906 52.6263 12.9776 53.0701 15.0919 53.142C17.8117 53.2674 18.6731 53.3053 25.5701 53.3053C32.467 53.3053 33.351 53.3053 36.0482 53.142C38.1583 53.099 40.2461 52.6858 42.2221 51.9199C43.9101 51.2434 45.4432 50.2112 46.7235 48.889C48.0039 47.5668 49.0034 45.9836 49.6584 44.2403C50.4012 42.1986 50.7994 40.0461 50.8418 37.8615C50.9632 35.0557 51 34.1661 51 27.0407C50.9943 19.9182 50.9943 19.014 50.8362 16.2228ZM25.5503 40.4224C18.337 40.4224 12.4936 34.3878 12.4936 26.9386C12.4936 19.4895 18.337 13.4549 25.5503 13.4549C29.0131 13.4549 32.3342 14.8755 34.7828 17.4042C37.2314 19.9329 38.607 23.3625 38.607 26.9386C38.607 30.5147 37.2314 33.9444 34.7828 36.4731C32.3342 39.0018 29.0131 40.4224 25.5503 40.4224ZM39.1266 16.1003C38.7267 16.1007 38.3306 16.0196 37.9611 15.8617C37.5915 15.7039 37.2558 15.4723 36.973 15.1802C36.6902 14.8882 36.4659 14.5414 36.3131 14.1598C36.1602 13.7782 36.0817 13.3691 36.0821 12.9561C36.0821 12.5434 36.1608 12.1348 36.3137 11.7535C36.4666 11.3722 36.6908 11.0257 36.9734 10.7339C37.256 10.4421 37.5914 10.2106 37.9607 10.0526C38.3299 9.89471 38.7256 9.81342 39.1252 9.81342C39.5249 9.81342 39.9206 9.89471 40.2898 10.0526C40.659 10.2106 40.9945 10.4421 41.2771 10.7339C41.5597 11.0257 41.7838 11.3722 41.9368 11.7535C42.0897 12.1348 42.1684 12.5434 42.1684 12.9561C42.1684 14.6945 40.8071 16.1003 39.1266 16.1003Z" fill="#061C3B"/>
<path d="M25.5507 35.6974C30.2348 35.6974 34.032 31.776 34.032 26.9387C34.032 22.1014 30.2348 18.1799 25.5507 18.1799C20.8666 18.1799 17.0693 22.1014 17.0693 26.9387C17.0693 31.776 20.8666 35.6974 25.5507 35.6974Z" fill="#061C3B"/>
</svg>
